<svg width="20" height="20" viewBox="0 0 20 20" fill="none" xmlns="http://www.w3.org/2000/svg">
<path fill-rule="evenodd" clip-rule="evenodd" d="M3.47667 2.64341C2.5 3.61925 2.5 5.19091 2.5 8.33341V11.6667C2.5 14.8092 2.5 16.3809 3.47667 17.3567C4.45333 18.3326 6.02417 18.3334 9.16667 18.3334H10.8333C13.9758 18.3334 15.5475 18.3334 16.5233 17.3567C17.4992 16.3801 17.5 14.8092 17.5 11.6667V8.33341C17.5 5.19091 17.5 3.61925 16.5233 2.64341C15.5467 1.66758 13.9758 1.66675 10.8333 1.66675H9.16667C6.02417 1.66675 4.4525 1.66675 3.47667 2.64341ZM6.04167 6.66675C6.04167 6.50099 6.10751 6.34202 6.22472 6.22481C6.34193 6.1076 6.50091 6.04175 6.66667 6.04175H13.3333C13.4991 6.04175 13.6581 6.1076 13.7753 6.22481C13.8925 6.34202 13.9583 6.50099 13.9583 6.66675C13.9583 6.83251 13.8925 6.99148 13.7753 7.10869C13.6581 7.2259 13.4991 7.29175 13.3333 7.29175H6.66667C6.50091 7.29175 6.34193 7.2259 6.22472 7.10869C6.10751 6.99148 6.04167 6.83251 6.04167 6.66675ZM6.04167 10.0001C6.04167 9.83432 6.10751 9.67535 6.22472 9.55814C6.34193 9.44093 6.50091 9.37508 6.66667 9.37508H13.3333C13.4991 9.37508 13.6581 9.44093 13.7753 9.55814C13.8925 9.67535 13.9583 9.83432 13.9583 10.0001C13.9583 10.1658 13.8925 10.3248 13.7753 10.442C13.6581 10.5592 13.4991 10.6251 13.3333 10.6251H6.66667C6.50091 10.6251 6.34193 10.5592 6.22472 10.442C6.10751 10.3248 6.04167 10.1658 6.04167 10.0001ZM6.66667 12.7084C6.50091 12.7084 6.34193 12.7743 6.22472 12.8915C6.10751 13.0087 6.04167 13.1677 6.04167 13.3334C6.04167 13.4992 6.10751 13.6581 6.22472 13.7754C6.34193 13.8926 6.50091 13.9584 6.66667 13.9584H10.8333C10.9991 13.9584 11.1581 13.8926 11.2753 13.7754C11.3925 13.6581 11.4583 13.4992 11.4583 13.3334C11.4583 13.1677 11.3925 13.0087 11.2753 12.8915C11.1581 12.7743 10.9991 12.7084 10.8333 12.7084H6.66667Z" fill="#9D9D9D"/>
</svg>
