<svg width="25" height="23" viewBox="0 0 25 23" fill="none" xmlns="http://www.w3.org/2000/svg">
<path d="M22.5 0.25C23.163 0.25 23.7989 0.513392 24.2678 0.982233C24.7366 1.45107 25 2.08696 25 2.75V20.25C25 20.913 24.7366 21.5489 24.2678 22.0178C23.7989 22.4866 23.163 22.75 22.5 22.75H2.5C1.83696 22.75 1.20107 22.4866 0.732233 22.0178C0.263392 21.5489 0 20.913 0 20.25V2.75C0 2.08696 0.263392 1.45107 0.732233 0.982233C1.20107 0.513392 1.83696 0.25 2.5 0.25H22.5ZM22.5 2.75H2.5V20.25H3.66125L15.2963 8.615C15.4413 8.46986 15.6136 8.35474 15.8032 8.27619C15.9928 8.19764 16.196 8.15721 16.4013 8.15721C16.6065 8.15721 16.8097 8.19764 16.9993 8.27619C17.1889 8.35474 17.3612 8.46986 17.5062 8.615L22.5 13.6075V2.75ZM16.4013 11.045L7.19625 20.25H22.5V17.1437L16.4013 11.045ZM6.875 5.25C7.37228 5.25 7.84919 5.44754 8.20083 5.79917C8.55246 6.15081 8.75 6.62772 8.75 7.125C8.75 7.62228 8.55246 8.09919 8.20083 8.45083C7.84919 8.80246 7.37228 9 6.875 9C6.37772 9 5.90081 8.80246 5.54917 8.45083C5.19754 8.09919 5 7.62228 5 7.125C5 6.62772 5.19754 6.15081 5.54917 5.79917C5.90081 5.44754 6.37772 5.25 6.875 5.25Z" fill="#9D9D9D"/>
</svg>
