<svg width="20" height="20" viewBox="0 0 20 20" fill="none" xmlns="http://www.w3.org/2000/svg">
<path d="M4.99967 18.3334C4.54134 18.3334 4.14912 18.1704 3.82301 17.8442C3.4969 17.5181 3.33356 17.1256 3.33301 16.6667V6.66675C3.33301 6.20841 3.49634 5.81619 3.82301 5.49008C4.14967 5.16397 4.5419 5.00064 4.99967 5.00008H6.66634C6.66634 4.08341 6.99273 3.29869 7.64551 2.64591C8.29829 1.99314 9.08301 1.66675 9.99967 1.66675C10.9163 1.66675 11.7011 1.99314 12.3538 2.64591C13.0066 3.29869 13.333 4.08341 13.333 5.00008H14.9997C15.458 5.00008 15.8505 5.16341 16.1772 5.49008C16.5038 5.81675 16.6669 6.20897 16.6663 6.66675V16.6667C16.6663 17.1251 16.5033 17.5176 16.1772 17.8442C15.8511 18.1709 15.4586 18.334 14.9997 18.3334H4.99967ZM8.33301 5.00008H11.6663C11.6663 4.54175 11.5033 4.14953 11.1772 3.82341C10.8511 3.4973 10.4586 3.33397 9.99967 3.33341C9.54079 3.33286 9.14856 3.49619 8.82301 3.82341C8.49745 4.15064 8.33412 4.54286 8.33301 5.00008ZM12.4997 9.16675C12.7358 9.16675 12.9338 9.08675 13.0938 8.92675C13.2538 8.76675 13.3336 8.56897 13.333 8.33341V6.66675H11.6663V8.33341C11.6663 8.56953 11.7463 8.76758 11.9063 8.92758C12.0663 9.08758 12.2641 9.1673 12.4997 9.16675ZM7.49967 9.16675C7.73579 9.16675 7.93384 9.08675 8.09384 8.92675C8.25384 8.76675 8.33356 8.56897 8.33301 8.33341V6.66675H6.66634V8.33341C6.66634 8.56953 6.74634 8.76758 6.90634 8.92758C7.06634 9.08758 7.26412 9.1673 7.49967 9.16675Z" fill="#9D9D9D"/>
</svg>
