<svg width="20" height="20" viewBox="0 0 20 20" fill="none" xmlns="http://www.w3.org/2000/svg">
<path d="M15.833 14.1667H9.99967C9.08051 14.1667 8.33301 14.9142 8.33301 15.8333C8.33301 16.7525 9.08051 17.5 9.99967 17.5H15.833C16.7522 17.5 17.4997 16.7525 17.4997 15.8333C17.4997 14.9142 16.7522 14.1667 15.833 14.1667ZM15.833 8.33333H9.99967C9.08051 8.33333 8.33301 9.08083 8.33301 10C8.33301 10.9192 9.08051 11.6667 9.99967 11.6667H15.833C16.7522 11.6667 17.4997 10.9192 17.4997 10C17.4997 9.08083 16.7522 8.33333 15.833 8.33333ZM15.833 2.5H9.99967C9.08051 2.5 8.33301 3.2475 8.33301 4.16667C8.33301 5.08583 9.08051 5.83333 9.99967 5.83333H15.833C16.7522 5.83333 17.4997 5.08583 17.4997 4.16667C17.4997 3.2475 16.7522 2.5 15.833 2.5Z" fill="#9D9D9D"/>
<path d="M4.16634 17.9167C5.31693 17.9167 6.24967 16.9839 6.24967 15.8333C6.24967 14.6827 5.31693 13.75 4.16634 13.75C3.01575 13.75 2.08301 14.6827 2.08301 15.8333C2.08301 16.9839 3.01575 17.9167 4.16634 17.9167Z" fill="#9D9D9D"/>
<path d="M4.16634 12.0834C5.31693 12.0834 6.24967 11.1507 6.24967 10.0001C6.24967 8.84949 5.31693 7.91675 4.16634 7.91675C3.01575 7.91675 2.08301 8.84949 2.08301 10.0001C2.08301 11.1507 3.01575 12.0834 4.16634 12.0834Z" fill="#9D9D9D"/>
<path d="M4.16634 6.24992C5.31693 6.24992 6.24967 5.31718 6.24967 4.16659C6.24967 3.01599 5.31693 2.08325 4.16634 2.08325C3.01575 2.08325 2.08301 3.01599 2.08301 4.16659C2.08301 5.31718 3.01575 6.24992 4.16634 6.24992Z" fill="#9D9D9D"/>
</svg>
